<svg height="512pt" viewBox="0 -61 512 512" width="512pt" xmlns="http://www.w3.org/2000/svg"><path d="m467 120.007812h-169.140625c.980469-3.746093 1.796875-7.53125 2.417969-11.347656 9.160156-56.097656-22.585938-108.660156-73.363282-108.660156-8.28125 0-15 6.714844-15 15 0 6.269531.441407 12.683594.902344 19.476562 2.253906 33.0625 4.582032 67.25-41.960937 93.832032-24.75 14.128906-37.171875 21.222656-63.878907 21.699218-.089843.003907-91.976562 0-91.976562 0-3.980469 0-7.792969 1.578126-10.605469 4.390626s-4.394531 6.628906-4.394531 10.609374v180c0 8.28125 6.714844 15 15 15h118.269531c40.503907 19.632813 85.570313 30 130.574219 30h53.398438c24.8125 0 45-20.1875 45-45 0-5.859374-1.136719-11.449218-3.179688-16.585937 19.097656-5.207031 33.179688-22.691406 33.179688-43.414063 0-5.859374-1.136719-11.449218-3.179688-16.585937 19.097656-5.207031 33.179688-22.691406 33.179688-43.414063 0-5.261718-.914063-10.308593-2.578126-15h47.335938c24.8125 0 45-20.1875 45-45 0-24.816406-20.1875-45-45-45zm-149.757812 240c-9.730469 0-14.753907 0-30 0-8.269532 0-15-6.730468-15-15 0-8.273437 6.730468-15 15-15h30c8.273437 0 15 6.726563 15 15 0 8.269532-6.726563 15-15 15zm30-60h-30c-8.269532 0-15-6.730468-15-15 0-8.273437 6.730468-15 15-15h30c8.273437 0 15 6.726563 15 15 0 8.269532-6.726563 15-15 15zm45-75c0 8.269532-6.726563 15-15 15-7.257813 0-52.691407 0-60 0-8.269532 0-15-6.730468-15-15 0-8.273437 6.730468-15 15-15h60c8.273437 0 15 6.726563 15 15zm74.757812-45c-7.148438 0-143.394531 0-149.757812 0-24.8125 0-45 20.183594-45 45 0 11.515626 4.355468 22.03125 11.496093 30-7.140625 7.964844-11.496093 18.480469-11.496093 30 0 5.855469 1.136718 11.445313 3.183593 16.585938-19.097656 5.203125-33.183593 22.6875-33.183593 43.414062 0 4.996094.832031 9.800782 2.34375 14.296876-35.070313-2.546876-69.679688-12-101.117188-27.714844-2.082031-1.042969-4.378906-1.582032-6.707031-1.582032h-106.761719v-150.019531c82.722656.007813 77.449219.023438 78.140625-.015625 33.972656-.726562 51.355469-10.632812 77.589844-25.613281 62.261719-35.554687 59.414062-86.652344 57.085937-120.90625 32.113282 14.800781 43.421875 75.683594 3.214844 120.917969-2.4375 2.746094-3.789062 6.292968-3.789062 9.964844v.671874c0 41.351563-33.644532 75-75 75-8.28125 0-15 6.714844-15 15 0 8.28125 6.71875 15 15 15 56.226562 0 102.269531-44.421874 104.886718-100.007812 5.183594-6.324219 9.722656-13.023438 13.609375-19.992188h181.261719c8.269531 0 15 6.726563 15 15 0 8.269532-6.730469 15-15 15zm0 0"/></svg>